<?xml version="1.0" encoding="utf-8"?>
<!-- Generator: Adobe Illustrator 16.0.0, SVG Export Plug-In . SVG Version: 6.00 Build 0)  -->
<!DOCTYPE svg PUBLIC "-//W3C//DTD SVG 1.1//EN" "http://www.w3.org/Graphics/SVG/1.1/DTD/svg11.dtd">
<svg version="1.1" id="Calque_1" xmlns="http://www.w3.org/2000/svg" xmlns:xlink="http://www.w3.org/1999/xlink" x="0px" y="0px"
	 width="809.515px" height="304.379px" viewBox="0 0 809.515 304.379" enable-background="new 0 0 809.515 304.379"
	 xml:space="preserve">
<linearGradient id="SVGID_1_" gradientUnits="userSpaceOnUse" x1="0" y1="152.1899" x2="809.5146" y2="152.1899">
	<stop  offset="0" style="stop-color:#FFFD83"/>
	<stop  offset="1" style="stop-color:#42C4A3"/>
</linearGradient>
<polygon fill="url(#SVGID_1_)" points="0,304.379 184.888,144.849 253.848,185.005 318.811,125.875 363.783,125.875 440.735,0 
	561.662,154.881 624.624,100.218 809.515,294.344 722.566,229.636 736.829,289.257 699.584,211.786 620.628,130.338 
	552.668,202.857 573.655,285.417 511.695,218.481 410.753,274.259 501.303,165.573 533.679,177.197 441.735,50.746 336.449,224.059 
	315.899,179.516 218.865,288.768 230.86,219.589 183.888,180.542 "/>
<rect x="296.698" y="280.731" fill="none" width="290.789" height="93.421"/>
<text transform="matrix(1 0 0 1 296.6982 353.0298)" display="none" fill="#303644" font-family="'Carosello-Regular'" font-size="100">santour</text>
<rect x="296.698" y="280.731" fill="none" width="290.789" height="93.421"/>
<text transform="matrix(1 0 0 1 296.6982 353.0298)" display="none" fill="#42C4A3" font-family="'Carosello-Regular'" font-size="100">santour</text>
</svg>
